<svg xmlns="http://www.w3.org/2000/svg" version="1.1" xmlns:xlink="http://www.w3.org/1999/xlink" xmlns:svgjs="http://svgjs.com/svgjs" width="1440" height="560" preserveAspectRatio="none" viewBox="0 0 1440 560"><g mask="url(&quot;#SvgjsMask1003&quot;)" fill="none"><rect width="1440" height="560" x="0" y="0" fill="rgba(137, 72, 229, 1)"></rect><path d="M898.58 77.28L943.2 77.28L943.2 108.26L898.58 108.26z" fill="rgba(255, 234, 114, 1)"></path><path d="M400.07 58.43a9.91 9.91 0 1 0 16.27 11.32z" stroke="rgba(255, 144, 235, 1)"></path><path d="M410.62 545.15a39.36 39.36 0 1 0-45.63-64.15z" fill="rgba(255, 234, 114, 1)"></path><path d="M493.54 249.25 a10.41 10.41 0 1 0 20.82 0 a10.41 10.41 0 1 0 -20.82 0z" stroke="rgba(112, 255, 243, 1)"></path><path d="M413.43 324.52a42.44 42.44 0 1 0-47.48-70.36z" fill="rgba(255, 144, 235, 1)"></path><path d="M452.68 54.89L474.28 54.89L474.28 86.12L452.68 86.12z" stroke="rgba(255, 234, 114, 1)"></path><path d="M492.16 41.06 a37.6 37.6 0 1 0 75.2 0 a37.6 37.6 0 1 0 -75.2 0z" fill="rgba(112, 255, 243, 1)"></path><path d="M174.42 411.26a34.44 34.44 0 1 0-67.83 11.96z" stroke="rgba(255, 144, 235, 1)"></path><path d="M534.04 365.47a27.38 27.38 0 1 0-31.3 44.93z" stroke="rgba(112, 255, 243, 1)"></path><path d="M899.4 3.37 a10.4 10.4 0 1 0 20.8 0 a10.4 10.4 0 1 0 -20.8 0z" fill="rgba(255, 144, 235, 1)"></path><path d="M830.51 114.49L840.86 114.49L840.86 124.84L830.51 124.84z" fill="rgba(255, 144, 235, 1)"></path><path d="M1192.75 445.27L1237.41 445.27L1237.41 461.36L1192.75 461.36z" fill="rgba(255, 234, 114, 1)"></path><path d="M392.87 77.37L406.1 77.37L406.1 103.3L392.87 103.3z" stroke="rgba(255, 234, 114, 1)"></path><path d="M524.77 432.17L551.97 432.17L551.97 442.37L524.77 442.37z" fill="rgba(255, 144, 235, 1)"></path><path d="M512.23 23.39 a36.91 36.91 0 1 0 73.82 0 a36.91 36.91 0 1 0 -73.82 0z" fill="rgba(255, 144, 235, 1)"></path><path d="M293.92 373.59L344.68 373.59L344.68 424.35L293.92 424.35z" stroke="rgba(255, 144, 235, 1)"></path><path d="M1078.9 107.15 a43.71 43.71 0 1 0 87.42 0 a43.71 43.71 0 1 0 -87.42 0z" fill="rgba(112, 255, 243, 1)"></path><path d="M776.72 239.53L781.45 239.53L781.45 285.8L776.72 285.8z" fill="rgba(255, 234, 114, 1)"></path><path d="M849.3 228.57 a7.15 7.15 0 1 0 14.3 0 a7.15 7.15 0 1 0 -14.3 0z" stroke="rgba(112, 255, 243, 1)"></path><path d="M885.08 427.75 a50.45 50.45 0 1 0 100.9 0 a50.45 50.45 0 1 0 -100.9 0z" stroke="rgba(255, 144, 235, 1)"></path><path d="M244.19 125.83 a34.9 34.9 0 1 0 69.8 0 a34.9 34.9 0 1 0 -69.8 0z" stroke="rgba(255, 234, 114, 1)"></path><path d="M1379.08 545.28a43.36 43.36 0 1 0-84.87-17.83z" fill="rgba(112, 255, 243, 1)"></path><path d="M1075.41 64.05 a9.85 9.85 0 1 0 19.7 0 a9.85 9.85 0 1 0 -19.7 0z" stroke="rgba(112, 255, 243, 1)"></path><path d="M912.57 399.54L914.29 399.54L914.29 401.26L912.57 401.26z" fill="rgba(255, 144, 235, 1)"></path><path d="M877.42 92.26 a3.26 3.26 0 1 0 6.52 0 a3.26 3.26 0 1 0 -6.52 0z" stroke="rgba(255, 234, 114, 1)"></path><path d="M575.1 296.42a48.24 48.24 0 1 0 1.03 96.47z" fill="rgba(112, 255, 243, 1)"></path><path d="M1134.07 516.31a2.25 2.25 0 1 0-4.4-0.92z" stroke="rgba(255, 144, 235, 1)"></path><path d="M1397.38 530.07L1445.7 530.07L1445.7 564.93L1397.38 564.93z" stroke="rgba(112, 255, 243, 1)"></path><path d="M392.73 324.78L399.23 324.78L399.23 379.57L392.73 379.57z" fill="rgba(112, 255, 243, 1)"></path><path d="M102.59 347.1L122.45 347.1L122.45 374.48L102.59 374.48z" stroke="rgba(112, 255, 243, 1)"></path><path d="M1218.26 95.85a35.48 35.48 0 1 0 67.39 22.23z" stroke="rgba(255, 234, 114, 1)"></path><path d="M649.11 469.05a15.47 15.47 0 1 0 12.88 28.13z" stroke="rgba(255, 234, 114, 1)"></path><path d="M859.42 216.33 a4.27 4.27 0 1 0 8.54 0 a4.27 4.27 0 1 0 -8.54 0z" fill="rgba(255, 234, 114, 1)"></path></g><defs><mask id="SvgjsMask1003"><rect width="1440" height="560" fill="#ffffff"></rect></mask></defs></svg>